<svg xmlns="http://www.w3.org/2000/svg" xmlns:xlink="http://www.w3.org/1999/xlink" xmlns:inkscape="http://www.inkscape.org/namespaces/inkscape" version="1.1" width="595.2756" height="841.8898" viewBox="0 0 595.2756 841.8898">
<defs>
<clipPath id="clip_0">
<path transform="matrix(1,0,0,-1,0,841.8898)" d="M0 123.3071H595.2756V718.58267H0Z"/>
</clipPath>
</defs>
<g clip-path="url(#clip_0)">
<path transform="matrix(1,0,0,-1,0,841.8898)" d="M0 123.3071H595.2756V718.58267H0Z" fill="#05092b"/>
<path transform="matrix(1,0,0,-1,0,841.8898)" d="M245.6945 427.634C244.6515 427.5429 244.2453 427.6096 243.9744 427.8007 243.1333 428.6418 244.9783 430.1175 245.1367 430.2416 246.4909 431.2417 248.7414 432.3691 251.0284 432.9692 251.4666 433.0737 251.9056 433.1722 252.3479 433.2522 252.9205 433.346 253.4848 433.3987 254.0271 433.3987 250.3489 429.0746 247.4601 427.8802 245.6945 427.634M355.0216 433.0597C354.6329 433.663 354.0138 433.8746 353.359 433.9853 352.3036 434.1639 351.2404 434.3014 350.1829 434.4696 349.7579 434.5368 349.3391 434.6407 348.9167 434.7252 348.3497 434.8389 347.7839 434.9568 347.2151 435.061 346.719 435.1515 346.2175 435.214 345.7222 435.3092 344.7927 435.4881 343.8697 435.7006 342.9378 435.864 341.944 436.0384 340.9427 436.1712 339.945 436.3242 339.4456 436.4009 338.9477 436.4834 338.4485 436.5617 337.6699 436.6837 336.8916 436.809 336.1121 436.9248 335.4787 437.0191 334.8441 437.1052 334.2096 437.1888 333.2928 437.3093 332.3755 437.4266 331.4579 437.5415 330.7364 437.6317 330.0129 437.71 329.2917 437.804 328.4357 437.9159 327.583 438.0573 326.7252 438.1528 325.8418 438.2514 324.9536 438.3043 324.0682 438.3883 323.294 438.4615 322.521 438.5496 321.7478 438.632 320.6429 438.7496 319.5393 438.8862 318.4324 438.9809 317.2874 439.0788 316.1385 439.1267 314.9923 439.2133 312.6139 439.3931 310.2384 439.6145 307.8576 439.7619 307.4311 439.7881 307.0043 439.8104 306.5775 439.8309H306.5828C306.554 439.8324 306.5251 439.8336 306.4959 439.8348 306.0718 439.855 305.6476 439.8732 305.2235 439.8899 304.2919 439.9285 303.3799 439.9631 302.487 439.994 302.1525 440.0077 301.8176 440.022 301.4828 440.0375 297.5448 440.2235 293.6055 440.2682 289.666 440.1982 278.0206 440.1417 271.4904 439.3702 269.1212 439.0219 269.1061 439.0199 269.0903 439.0181 269.0748 439.016L269.157 439.0386C269.157 439.0386 269.1162 439.0288 269.0447 439.0121 268.0831 438.8871 266.5854 438.6689 265.9562 438.7306 265.8776 438.7457 265.7987 438.7636 265.7195 438.7862 265.4383 438.9419 265.7041 439.6026 265.9782 440.1321 266.4633 441.0533 267.2217 442.0855 267.2217 442.0855L267.2033 442.0757C268.5745 443.9288 269.9582 445.7727 271.3154 447.6362 272.5366 449.3131 273.7281 451.0129 274.8912 452.7305 276.0404 454.4268 277.1557 456.1465 278.2531 457.877 279.5811 459.9712 280.8878 462.0793 282.1792 464.1961 283.1358 465.7644 284.0621 467.352 284.9865 468.9396 285.8425 470.4093 286.6965 471.8806 287.5188 473.369 288.8177 475.7198 290.1011 478.0789 291.3685 480.4466 292.3159 482.2169 293.2376 484.0013 294.1511 485.7892 294.8964 487.2479 295.6184 488.7185 296.3393 490.1895 296.9938 491.5253 297.6379 492.8664 298.2772 494.2093 298.9389 495.5984 299.5973 496.989 300.2422 498.3855 300.8348 499.6695 301.4108 500.961 301.9882 502.2518 302.4251 503.2287 302.8549 504.2085 303.2829 505.1892 303.8088 506.394 304.3371 507.598 304.8503 508.8082 305.3015 509.8716 305.7366 510.9419 306.1724 512.0117 306.7656 513.4671 307.3611 514.9217 307.9403 516.3828 308.4062 517.5587 308.8618 518.7392 309.2958 519.927 309.3845 520.1693 309.4637 520.4158 309.5381 520.6637 309.5393 520.6676 309.5407 520.6708 309.5422 520.6747 310.5241 523.382 310.092 523.8172 310.092 523.8172 310.0199 524.0514 309.8815 524.2645 309.6854 524.4249 308.7124 525.2217 307.3939 524.6553 306.9254 523.7984 306.5974 523.1984 306.3584 522.5477 306.1063 521.909 305.6596 520.7786 305.2429 519.6359 304.7952 518.5058 304.3476 517.3757 303.8779 516.2542 303.4174 515.1294 302.84 513.7195 302.2718 512.3057 301.6813 510.9015 301.1718 509.6898 300.6363 508.4891 300.1116 507.2837 299.4684 505.8071 298.8383 504.3249 298.1772 502.856 297.3697 501.0616 296.5509 499.2719 295.7095 497.4932 294.7208 495.4035 293.7142 493.3221 292.6936 491.2479 291.5789 488.9828 290.4645 486.7166 289.3032 484.4757 288.0448 482.0479 286.7548 479.6358 285.4374 477.2395 283.9951 474.615 282.5364 471.9981 281.0282 469.4108 279.4508 466.7043 277.8477 464.0104 276.1791 461.3594 274.4305 458.5812 272.6271 455.8355 270.78 453.1222 269.2513 450.8766 267.6482 448.6803 266.0324 446.4962 264.7466 444.758 263.4033 443.0615 262.0619 441.3649 261.4955 440.6488 260.8987 439.9512 260.2629 439.2958 259.1266 438.1237 257.7494 437.3799 256.1219 437.1197 256.0526 437.1087 255.9835 437.0956 255.9145 437.0822 244.0851 434.952 241.3156 431.3494 241.3156 431.3494L241.3168 431.3497C240.757 430.8122 240.2831 430.1857 239.9384 429.4416 239.4462 428.3787 239.4444 427.3248 240.1661 426.3247 240.5596 425.7794 241.0742 425.4336 241.6618 425.1663L241.6531 425.1633C241.6531 425.1633 241.8064 425.0854 242.0972 424.9871 242.5666 424.8154 243.0479 424.7151 243.5327 424.6669 245.1388 424.463 247.6892 424.5981 250.8481 426.333 251.9934 426.9271 253.0229 427.7102 254.0429 428.5004 256.1195 430.1089 258.061 431.8664 259.8724 433.7701 260.2442 434.1609 260.6737 434.5089 261.1186 434.8157 261.9919 435.4178 262.9649 435.7839 264.0257 435.9101 264.9418 436.0191 265.8532 436.1744 266.7708 436.2614 268.0494 436.3828 269.3332 436.4498 270.6133 436.5578 271.8071 436.6587 272.9974 436.8105 274.1927 436.8909 276.2029 437.026 278.2153 437.1438 280.2282 437.2287 282.3908 437.3198 284.5549 437.3933 286.7191 437.4224 290.5294 437.4736 294.3413 437.5489 298.1507 437.4963 302.2567 437.4397 306.3608 437.2534 310.4652 437.112 312.0469 437.0572 313.6279 436.9804 315.2084 436.8935 316.2447 436.8364 317.2802 436.7495 318.3148 436.6649 319.8045 436.5435 321.2936 436.4146 322.7821 436.2837 323.7419 436.1991 324.7009 436.1093 325.6593 436.0131 326.7403 435.9051 327.8202 435.7851 328.9009 435.6741 329.723 435.5896 330.5465 435.5161 331.3686 435.428 332.0064 435.3598 332.6434 435.2833 333.2794 435.1985 334.0982 435.0893 334.9144 434.9607 335.7335 434.8544 336.4305 434.7642 337.1309 434.702 337.8279 434.6112 338.3405 434.5446 338.8503 434.452 339.3611 434.3705 340.079 434.2556 340.796 434.1341 341.5148 434.027 342.1232 433.9362 342.7378 433.8805 343.3435 433.7752 344.3132 433.6064 345.2763 433.4002 346.2451 433.2266 347.5408 432.9948 348.8394 432.7817 350.1356 432.5555 350.5231 432.4876 350.907 432.4004 351.2937 432.3257 352.0175 432.1861 352.742 432.0489 353.4661 431.9108 353.4661 431.9108 354.7436 431.5506 355.038 432.3611 355.0383 432.3614 355.0383 432.3617 355.0383 432.362 355.1487 432.5784 355.16 432.8448 355.0216 433.0597" fill="#ffffff"/>
<path transform="matrix(1,0,0,-1,0,841.8898)" d="M209.2449 346.2387C205.1345 341.6717 198.4624 341.4904 193.9398 345.786 191.2089 348.3796 189.4216 351.5694 188.193 355.1663 186.2973 360.7149 185.7768 366.3822 186.2152 372.1593 186.4878 375.75 186.8622 379.3369 187.9659 382.8106 188.7826 385.3816 189.9395 387.7472 191.6876 389.7938 194.3455 392.9056 197.7171 394.581 201.8462 394.2432 203.2052 394.1322 204.4256 393.7303 205.5447 393.1333 206.6852 392.4347 208.5937 391.032 210.3744 388.6375 211.5617 386.7626 213.3696 383.3118 214.5824 378.2216 215.4137 374.0365 215.7084 369.4898 215.6215 365.7973 215.3045 362.1932 214.6435 358.6567 213.7583 355.1389 212.9204 351.8104 211.5203 348.7668 209.2449 346.2387M221.5948 386.473C218.7964 390.7688 215.1238 393.9667 210.2596 395.4906 206.0727 396.8023 201.7022 397.4874 197.2876 396.896 194.0746 396.4656 190.9304 395.8171 188.0718 394.0068 186.2625 392.8612 184.6752 391.5629 183.2989 390.0989 183.2986 390.1001 183.2983 390.1015 183.2977 390.1027 183.2924 390.0953 183.2873 390.0878 183.282 390.0804 181.2009 387.8621 179.6076 385.2593 178.4951 382.1993 177.9048 380.5762 177.4346 378.9407 177.0643 377.2906 173.6272 364.68 178.0432 354.6282 178.0432 354.6282L178.0435 354.6291C178.579 353.0302 179.2728 351.4815 180.208 350.0151 182.5039 346.4163 185.7181 343.8992 189.494 342.0473 189.7237 341.9345 189.9562 341.8324 190.1898 341.7351H190.1892C190.1892 341.7351 190.2023 341.7297 190.2259 341.7199 190.8506 341.4616 191.4875 341.2535 192.1334 341.086 195.1657 340.2198 201.4102 339.0013 208.4538 340.8678 208.549 340.8913 208.6446 340.9127 208.7398 340.9374 209.5646 341.1514 210.361 341.4142 211.1316 341.7199 211.1456 341.7253 211.1593 341.73 211.173 341.7351H211.1679C214.275 342.9748 216.9505 344.9448 219.2298 347.5262 222.0407 350.7095 223.9911 354.2945 224.87 358.493 226.0111 363.9436 226.224 369.4235 225.3757 374.8964 224.7506 378.9288 223.9077 382.9222 221.5948 386.473" fill="#ffffff"/>
<path transform="matrix(1,0,0,-1,0,841.8898)" d="M392.8534 352.0865C391.7373 348.8741 389.8476 346.2329 386.987 344.564 385.1157 343.5101 382.3748 343.158 380.4797 343.0455 377.1232 342.9731 373.7665 342.9315 370.41 342.8809 370.3121 342.8794 370.2136 342.9306 370.046 342.9761V391.6676C374.1951 391.6676 378.2733 391.8956 382.3087 391.5789 384.5806 391.4006 386.5152 390.01 388.1475 388.1938 390.3009 385.7978 391.9712 383.1819 392.907 380.1284 394.3532 375.4067 394.8842 370.5594 394.9259 365.6186 394.9651 360.9743 394.3639 356.4347 392.8534 352.0865M401.9379 381.7818C400.2372 385.5076 398.0478 388.9457 394.3383 391.1503 391.5658 392.7983 388.6383 393.8228 385.4253 393.9385 381.4991 394.0805 377.57 394.1478 373.6418 394.2329 372.4459 394.2585 371.2488 394.2374 370.046 394.2368V395.9092H369.7677 361.6214 361.288C361.288 395.1231 361.2877 394.5317 361.288 393.9409 361.2984 377.4952 361.308 361.0496 361.3211 344.6042 361.3228 341.9805 362.9096 340.2304 365.5109 339.9756 366.1038 339.9173 366.7012 339.8676 367.2961 339.8726 373.5367 339.9244 379.7794 339.911 386.0173 340.0735 390.6801 340.195 394.8297 341.7388 398.246 345.0637 400.4399 347.1984 401.884 349.7971 402.79 352.6294 404.4262 357.744 404.8923 363.0363 404.7015 368.4024 404.5369 373.0289 403.8598 377.5723 401.9379 381.7818" fill="#ffffff"/>
<path transform="matrix(1,0,0,-1,0,841.8898)" d="M352.8441 355.823C351.5246 357.7844 350.335 359.5396 349.1587 361.304 345.7838 366.3659 342.402 371.4227 339.0474 376.4978 336.2895 380.6695 333.578 384.8721 330.8233 389.0462 329.3396 391.2942 327.8127 393.5137 326.2924 395.7374 326.1647 395.9237 325.9403 396.1692 325.7566 396.1728 324.0911 396.2067 322.4249 396.1928 320.7037 396.1928V340.0851H325.9927V380.9504C328.7181 376.8085 331.318 372.8758 333.8988 368.9309 337.0752 364.0747 340.2403 359.2116 343.4003 354.3446 345.1138 351.706 346.808 349.055 348.5081 346.4078 349.6207 344.6752 350.7052 342.9242 351.8541 341.2161 352.1684 340.7488 352.6402 340.1038 353.0896 340.0609 354.6094 339.9169 356.1508 340.0059 357.6979 340.0059V396.1088H352.8441Z" fill="#ffffff"/>
<path transform="matrix(1,0,0,-1,0,841.8898)" d="M285.4951 363.2784C288.1941 373.0915 290.8767 382.8451 293.5593 392.599 293.6239 392.6172 293.6885 392.6353 293.7531 392.6532 296.5884 382.9085 299.4234 373.1636 302.2994 363.2784ZM311.2324 367.7183C309.9109 372.3983 308.5087 377.0555 307.1926 381.737 305.9157 386.2796 304.6901 390.837 303.4748 395.3968 303.2944 396.0742 302.9632 396.2507 302.2956 396.246 298.3325 396.2165 294.368 396.1861 290.4058 396.2617 289.3772 396.2814 289.009 395.9272 288.7885 394.9977 288.0384 391.8341 287.2637 388.6747 286.4169 385.5358 284.7412 379.3247 283.022 373.1255 281.3005 366.9272 279.5688 360.6934 277.825 354.4633 276.0603 348.2394 275.2906 345.524 274.4551 342.8274 273.6 339.9564 273.6 339.9564 276.207 339.8665 277.7404 339.9418 277.7872 339.9392 277.8342 339.9377 277.8809 339.935 278.2464 339.9133 278.5247 339.9552 278.7432 340.0662 278.7697 340.0767 278.7911 340.0874 278.8054 340.099 278.809 340.1011 278.8119 340.1037 278.8155 340.1058 279.1021 340.2835 279.2751 340.6014 279.4007 341.0833 280.3355 344.6677 281.3183 348.2397 282.3172 351.8069 283.0869 354.5564 283.9069 357.292 284.7153 360.0711 290.5582 360.0711 296.3083 360.0636 302.0583 360.0824 302.6414 360.0845 302.8262 359.8345 302.9673 359.3204 303.4117 357.7022 303.9457 356.108 304.388 354.4889 305.6035 350.0368 306.8107 345.5821 307.97 341.1151 308.2055 340.2082 308.6117 339.8877 309.5594 339.9201 311.6962 339.9933 313.8377 339.9448 315.9771 339.9454 316.8748 339.946 317.7718 339.9457 318.693 339.9457 317.898 343.137 317.1938 346.1937 316.372 349.2186 314.6943 355.3949 312.9712 361.559 311.2324 367.7183" fill="#ffffff"/>
<path transform="matrix(1,0,0,-1,0,841.8898)" d="M414.9681 363.2752C417.6668 373.0884 420.3497 382.8419 423.0323 392.5961 423.0972 392.614 423.1615 392.6321 423.2261 392.6503 426.0614 382.9053 428.8964 373.1604 431.7722 363.2752ZM445.8448 349.2154C444.1673 355.3917 442.4443 361.5561 440.7055 367.7151 439.384 372.3952 437.9818 377.0523 436.6656 381.7338 435.3888 386.2764 434.1631 390.8341 432.9478 395.3936 432.7672 396.0711 432.4362 396.2476 431.7686 396.2428 427.8055 396.2133 423.841 396.1833 419.8789 396.2586 418.8502 396.2782 418.482 395.924 418.2615 394.9948 417.5114 391.8309 416.7367 388.6718 415.8899 385.5326 414.2142 379.3218 412.4951 373.1223 410.7732 366.924 409.0419 360.6903 407.298 354.4604 405.5336 348.2362 404.7636 345.5211 403.9282 342.8242 403.073 339.9532 404.5791 339.9532 405.9708 340.014 407.354 339.9318 408.2716 339.8776 408.6481 340.2149 408.8737 341.0804 409.8086 344.6645 410.7914 348.2368 411.7903 351.8037 412.5599 354.5533 413.3799 357.2888 414.1883 360.0682 420.0312 360.0682 425.7813 360.0605 431.5314 360.0792 432.1145 360.0813 432.2993 359.8316 432.4401 359.3173 432.8847 357.699 433.4187 356.1048 433.861 354.4857 435.0765 350.0336 436.2838 345.5789 437.4431 341.1119 437.6785 340.2053 438.0845 339.8845 439.0324 339.9169 441.1692 339.9904 443.3107 339.9416 445.4501 339.9425 446.3478 339.9428 447.2449 339.9425 448.1658 339.9425 447.3711 343.1341 446.6666 346.1908 445.8448 349.2154" fill="#ffffff"/>
<path transform="matrix(1,0,0,-1,0,841.8898)" d="M153.7796 396.1909H144.9716C144.9716 395.6617 144.9719 395.2442 144.9716 394.8269 144.9678 386.9023 144.9588 378.9774 144.9606 371.0528 144.9624 362.3215 144.8963 353.5892 145.0172 344.8597 145.0704 341.014 146.5461 340.0865 149.9196 340.0728 159.3216 340.0344 168.7237 340.0094 178.1258 339.9829 178.4952 339.982 178.8645 340.0207 179.2006 340.0392V342.3051H153.7796Z" fill="#ffffff"/>
<path transform="matrix(1,0,0,-1,0,841.8898)" d="M272.6739 361.0438C272.6021 361.0501 272.5301 361.0551 272.4587 361.0635 272.15 361.0995 271.8994 361.0929 271.6902 361.0438H270.938C270.938 361.0438 269.7927 356.0313 269.4195 354.919 269.196 354.2868 268.9418 353.6701 268.6409 353.0799 266.4544 348.7933 263.0152 345.872 258.2057 344.6776 251.958 343.1257 247.3398 345.8357 244.0953 350.878 241.2659 355.2756 239.7712 360.1759 239.4855 365.434 239.0944 372.63 239.8409 379.5173 243.9286 385.7781 245.5168 388.2104 247.4529 390.1034 249.9471 391.4389 253.9748 393.5959 260.3782 392.7997 263.7977 389.687 265.9931 387.6887 267.8221 385.3867 268.4721 382.3719 268.6022 381.7692 268.6885 381.1573 268.7942 380.5537H273.4424C272.9444 384.8626 271.2268 388.5235 268.3614 391.5889 266.3318 393.7608 263.8343 395.1662 260.8767 395.9752 257.139 396.9982 253.3866 397.1628 249.6221 396.7821 247.5675 396.5743 245.4671 395.966 243.5822 395.11 239.2298 393.133 235.9983 389.954 233.753 385.6361 231.9496 382.1678 230.654 378.5857 230.1066 374.7572 229.272 368.9208 229.4092 363.0874 230.6227 357.2975 231.1192 354.9303 231.8177 352.6344 232.8913 350.5196L232.8901 350.5199C232.8901 350.5199 237.2074 338.2838 256.6892 340.2377 256.6994 340.2383 256.7095 340.2389 256.7193 340.2395 256.7193 340.2392 256.719 340.2386 256.7187 340.2383 256.7217 340.2389 256.725 340.2395 256.7279 340.2401 257.544 340.2889 258.348 340.3901 259.1391 340.5458 259.1433 340.5464 259.1471 340.5467 259.1513 340.5476 259.1516 340.5476 259.1516 340.5479 259.1519 340.5482 261.2333 340.9589 263.2277 341.7441 265.1228 342.9525 265.855 343.4192 266.536 343.9276 267.1774 344.4687 270.2133 346.784 272.0807 349.6499 273.2263 352.3099 273.6591 353.224 273.9796 354.1699 274.2264 355.1411 275.0657 358.1288 275.0514 360.3616 275.0514 360.3834 275.0743 360.6033 275.0972 360.8233 275.1199 361.0438Z" fill="#ffffff"/>
<path transform="matrix(1,0,0,-1,0,841.8898)" d="M144.9734 317.1847V326.2614H146.0188V318.077H150.5699V317.1847Z" fill="#ffffff"/>
<path transform="matrix(1,0,0,-1,0,841.8898)" d="M160.2017 318.007C159.5939 318.6231 159.29 319.5347 159.29 320.7417V326.2614H160.3228V320.6524C160.3228 319.7681 160.5395 319.1014 160.9728 318.6508 161.4065 318.2001 162.0482 317.9751 162.898 317.9751 163.7394 317.9751 164.3748 318.2001 164.8037 318.6508 165.2329 319.1014 165.4478 319.7681 165.4478 320.6524V326.2614H166.4931V320.7417C166.4931 319.5431 166.1872 318.6335 165.5752 318.0132 164.9633 317.3929 164.071 317.0828 162.898 317.0828 161.708 317.0828 160.8094 317.3906 160.2017 318.007" fill="#ffffff"/>
<path transform="matrix(1,0,0,-1,0,841.8898)" d="M179.9683 321.8251 183.4232 317.1846H182.1866L179.3691 321.0346 176.5645 317.1846H175.315L178.77 321.8379 175.4808 326.2614H176.7303L179.3819 322.6156 182.0336 326.2614H183.2703Z" fill="#ffffff"/>
<path transform="matrix(1,0,0,-1,0,841.8898)" d="M193.1569 318.007C192.5491 318.6231 192.2452 319.5347 192.2452 320.7417V326.2614H193.278V320.6524C193.278 319.7681 193.4947 319.1014 193.9281 318.6508 194.3617 318.2001 195.0034 317.9751 195.8532 317.9751 196.6946 317.9751 197.3301 318.2001 197.759 318.6508 198.1882 319.1014 198.4028 319.7681 198.4028 320.6524V326.2614H199.4484V320.7417C199.4484 319.5431 199.1424 318.6335 198.5305 318.0132 197.9185 317.3929 197.0262 317.0828 195.8532 317.0828 194.6632 317.0828 193.7644 317.3906 193.1569 318.007" fill="#ffffff"/>
<path transform="matrix(1,0,0,-1,0,841.8898)" d="M212.9235 322.0164C214.3173 322.0164 215.0141 322.5857 215.0141 323.7245 215.0141 324.2855 214.8442 324.704 214.5043 324.9802 214.1641 325.2567 213.6375 325.3948 212.9235 325.3948H210.4373V322.0164ZM216.5315 317.1848H215.4222L214.3004 320.2061C214.1641 320.58 213.9754 320.8309 213.7331 320.958 213.4908 321.0856 213.1485 321.1493 212.7065 321.1493H210.4373V317.1848H209.4048V326.2616H213.0125C213.9899 326.2616 214.7403 326.0449 215.2629 325.6112 215.7856 325.1779 216.0469 324.5531 216.0469 323.7373 216.0469 323.1423 215.8918 322.6429 215.5817 322.2393 215.2713 321.8357 214.823 321.5488 214.2367 321.3788 214.4998 321.3363 214.7251 321.2237 214.9123 321.0413 215.0992 320.858 215.2564 320.5969 215.3841 320.257Z" fill="#ffffff"/>
<path transform="matrix(1,0,0,-1,0,841.8898)" d="M232.773 326.2615 229.2034 320.8564V317.1847H228.1581V320.8692L224.5885 326.2615H225.8124L228.6935 321.7996 231.5747 326.2615Z" fill="#ffffff"/>
<path transform="matrix(1,0,0,-1,0,841.8898)" d="M258.5789 326.2615H259.6245V317.1847H258.5789V321.3534H253.1354V317.1847H252.1029V326.2615H253.1354V322.2329H258.5789Z" fill="#ffffff"/>
<path transform="matrix(1,0,0,-1,0,841.8898)" d="M275.6876 318.9569C276.2231 319.6111 276.4906 320.5376 276.4906 321.7359 276.4906 322.9342 276.2251 323.8563 275.6939 324.5024 275.1626 325.148 274.4128 325.4712 273.4437 325.4712 272.4749 325.4712 271.7228 325.1462 271.1873 324.4959 270.6522 323.8458 270.3843 322.9259 270.3843 321.7359 270.3843 320.5376 270.6522 319.6111 271.1873 318.9569 271.7228 318.302 272.4749 317.9749 273.4437 317.9749 274.4042 317.9749 275.1522 318.302 275.6876 318.9569M271.251 317.6434C270.6307 318.0175 270.1524 318.555 269.817 319.2563 269.481 319.9572 269.3131 320.7799 269.3131 321.7231 269.3131 322.6746 269.4792 323.4994 269.8104 324.1965 270.142 324.8932 270.6179 325.4284 271.2382 325.8028 271.8588 326.1767 272.5937 326.3639 273.4437 326.3639 274.2935 326.3639 275.0289 326.1767 275.6495 325.8028 276.2698 325.4284 276.7457 324.8932 277.077 324.1965 277.4085 323.4994 277.5743 322.6794 277.5743 321.7359 277.5743 320.784 277.4065 319.9596 277.0707 319.2625 276.735 318.5658 276.257 318.0279 275.6364 317.6499 275.0161 317.2716 274.2851 317.0826 273.4437 317.0826 272.6026 317.0826 271.8713 317.2695 271.251 317.6434" fill="#ffffff"/>
<path transform="matrix(1,0,0,-1,0,841.8898)" d="M287.2632 317.1847V326.2614H288.3088V318.077H292.8597V317.1847Z" fill="#ffffff"/>
<path transform="matrix(1,0,0,-1,0,841.8898)" d="M301.9878 317.1848H303.0334V326.26158H301.9878Z" fill="#ffffff"/>
<path transform="matrix(1,0,0,-1,0,841.8898)" d="M316.037 318.077C317.2097 318.077 318.0913 318.383 318.6824 318.9949 319.2726 319.6069 319.5682 320.5203 319.5682 321.7359 319.5682 324.1583 318.391 325.3694 316.037 325.3694H314.0991V318.077ZM313.0538 326.2614H316.1007C317.554 326.2614 318.6779 325.8686 319.4726 325.0825 320.2673 324.2961 320.6647 323.1806 320.6647 321.7359 320.6647 320.2825 320.2673 319.1607 319.4726 318.3702 318.6779 317.5797 317.554 317.1847 316.1007 317.1847H313.0538Z" fill="#ffffff"/>
<path transform="matrix(1,0,0,-1,0,841.8898)" d="M331.7045 320.3846H335.7078L333.7064 325.0507ZM337.0718 317.1847 336.0774 319.5176H331.3352L330.3279 317.1847H329.244L333.2347 326.2614H334.1526L338.1427 317.1847Z" fill="#ffffff"/>
<path transform="matrix(1,0,0,-1,0,841.8898)" d="M353.1097 326.2615 349.5402 320.8564V317.1847H348.4949V320.8692L344.9253 326.2615H346.1489L349.0303 321.7996 351.9115 326.2615Z" fill="#ffffff"/>
<path transform="matrix(1,0,0,-1,0,841.8898)" d="M378.9159 326.2615H379.9615V317.1847H378.9159V321.3534H373.4724V317.1847H372.4396V326.2615H373.4724V322.2329H378.9159Z" fill="#ffffff"/>
<path transform="matrix(1,0,0,-1,0,841.8898)" d="M396.0242 318.9569C396.56 319.6111 396.8276 320.5376 396.8276 321.7359 396.8276 322.9342 396.5618 323.8563 396.0305 324.5024 395.4995 325.148 394.7494 325.4712 393.7806 325.4712 392.8118 325.4712 392.0597 325.1462 391.5242 324.4959 390.9888 323.8458 390.7209 322.9259 390.7209 321.7359 390.7209 320.5376 390.9888 319.6111 391.5242 318.9569 392.0597 318.302 392.8118 317.9749 393.7806 317.9749 394.7408 317.9749 395.4891 318.302 396.0242 318.9569M391.5879 317.6434C390.9674 318.0175 390.4894 318.555 390.1536 319.2563 389.8176 319.9572 389.65 320.7799 389.65 321.7231 389.65 322.6746 389.8158 323.4994 390.1474 324.1965 390.4786 324.8932 390.9546 325.4284 391.5751 325.8028 392.1954 326.1767 392.9303 326.3639 393.7806 326.3639 394.6301 326.3639 395.3656 326.1767 395.9861 325.8028 396.6064 325.4284 397.0826 324.8932 397.4139 324.1965 397.7455 323.4994 397.9113 322.6794 397.9113 321.7359 397.9113 320.784 397.7431 319.9596 397.4074 319.2625 397.0719 318.5658 396.5936 318.0279 395.9733 317.6499 395.3528 317.2716 394.6221 317.0826 393.7806 317.0826 392.9392 317.0826 392.2082 317.2695 391.5879 317.6434" fill="#ffffff"/>
<path transform="matrix(1,0,0,-1,0,841.8898)" d="M415.3132 326.2615H416.1799V317.1847H415.2111V323.9286L412.2662 317.1847H411.5266L408.5565 323.8777 408.5693 317.1847H407.6002V326.2615H408.4672L411.9091 318.4339Z" fill="#ffffff"/>
<path transform="matrix(1,0,0,-1,0,841.8898)" d="M426.2002 317.1847V326.2614H431.9368V325.3947H427.233V322.2329H431.6821V321.3534H427.233V318.0514H431.9368V317.1847Z" fill="#ffffff"/>
<path transform="matrix(1,0,0,-1,0,841.8898)" d="M440.8356 318.2302 441.2309 319.0332C441.6812 318.6508 442.1404 318.3784 442.6077 318.2171 443.075 318.0558 443.6191 317.9751 444.2397 317.9751 444.9704 317.9751 445.5335 318.1174 445.9288 318.4019 446.3237 318.6868 446.5217 319.0886 446.5217 319.6068 446.5217 319.9127 446.4258 320.1613 446.2347 320.3527 446.0434 320.5437 445.7928 320.6946 445.4823 320.8051 445.1722 320.9155 444.7579 321.0304 444.2397 321.1494 443.5426 321.3024 442.9688 321.4682 442.5184 321.6468 442.0681 321.8251 441.7026 322.0819 441.4222 322.418 441.1416 322.7534 441.0014 323.1936 441.0014 323.7374 441.0014 324.2559 441.1374 324.7125 441.4094 325.1077 441.6812 325.5033 442.066 325.8113 442.5631 326.0322 443.0604 326.253 443.6402 326.3637 444.3031 326.3637 444.9323 326.3637 445.5186 326.2658 446.0627 326.0706 446.6065 325.875 447.0655 325.5905 447.4393 325.2164L447.0312 324.413C446.6065 324.7785 446.1749 325.0461 445.7377 325.2164 445.2996 325.3863 444.8219 325.4711 444.3031 325.4711 443.5977 325.4711 443.0456 325.3202 442.6458 325.0187 442.2461 324.7169 442.0467 324.3023 442.0467 323.7758 442.0467 323.3168 442.2208 322.9728 442.5693 322.743 442.9179 322.5135 443.4533 322.3138 444.176 322.1438 444.9579 321.9569 445.5719 321.7846 446.0181 321.6274 446.4639 321.4703 446.8357 321.2322 447.1336 320.9137 447.431 320.5946 447.5795 320.172 447.5795 319.6452 447.5795 319.135 447.4435 318.6868 447.1717 318.3001 446.8997 317.9135 446.5107 317.6138 446.0053 317.4016 445.4993 317.1888 444.9067 317.0828 444.2269 317.0828 442.8071 317.0828 441.677 317.4653 440.8356 318.2302" fill="#ffffff"/>
<path transform="matrix(1,0,0,-1,0,841.8898)" d="M444.7185 390.6207C445.6671 390.6207 446.1413 391.0082 446.1413 391.7833 446.1413 392.1649 446.0258 392.45 445.7942 392.6378 445.5629 392.8256 445.2046 392.92 444.7185 392.92H443.0265V390.6207ZM447.1741 387.3321H446.4193L445.6555 389.3885C445.5629 389.643 445.4344 389.8135 445.2695 389.9004 445.1046 389.987 444.8718 390.0308 444.5709 390.0308H443.0265V387.3321H442.3238V393.5099H444.7793C445.4442 393.5099 445.9549 393.3623 446.3106 393.0676 446.6663 392.7723 446.8443 392.3473 446.8443 391.7919 446.8443 391.3868 446.7386 391.0472 446.5276 390.7725 446.3163 390.4975 446.0115 390.3025 445.6121 390.1868 445.7912 390.1576 445.9445 390.0814 446.0719 389.957 446.1993 389.8326 446.3064 389.6546 446.3931 389.4233Z" fill="#ffffff"/>
<path transform="matrix(1,0,0,-1,0,841.8898)" d="M444.6334 395.8483C441.6912 395.8483 439.2976 393.455 439.2976 390.5128 439.2976 387.5707 441.6912 385.1771 444.6334 385.1771 447.5755 385.1771 449.9688 387.5707 449.9688 390.5128 449.9688 393.455 447.5755 395.8483 444.6334 395.8483M444.6334 384.8148C441.4912 384.8148 438.9351 387.371 438.9351 390.5128 438.9351 393.6547 441.4912 396.2108 444.6334 396.2108 447.7752 396.2108 450.3316 393.6547 450.3316 390.5128 450.3316 387.371 447.7752 384.8148 444.6334 384.8148" fill="#ffffff"/>
</g>
</svg>
